# xmcd
#
# Track frame offsets:
#	150
#	19022
#	34877
#	55825
#	74825
#	92759
#	111048
#	127115
#	146674
#	158028
#
# Disc length: 2359 seconds
#
# Revision: 0
# Processed by: cddbd v1.5.2PL0 Copyright (c) Steve Scherf et al.
# Submitted via: VUPlayer 2.49
#
DISCID=8e09350a
DTITLE=Mike de Velta - Whiskey in The Mornin'
DYEAR=2011
DGENRE=Blues
TTITLE0=Nicotine Stain
TTITLE1=Mud And Grime Blues
TTITLE2=Like a Good Man Should
TTITLE3=Pretty White Lies
TTITLE4=This Great Love
TTITLE5=Cold And Crippled Hand
TTITLE6=Whiskey in The Mornin'
TTITLE7=Island in The Sun
TTITLE8=The Wedding Song
TTITLE9=Doorstep to my Heart
EXTD=
EXTT0=
EXTT1=
EXTT2=
EXTT3=
EXTT4=
EXTT5=
EXTT6=
EXTT7=
EXTT8=
EXTT9=
PLAYORDER=
